# xmcd
#
# Track frame offsets:
#	150
#	13380
#	26315
#	38180
#	50912
#	63347
#	76935
#	89490
#	101070
#	113872
#	126482
#	137532
#	149610
#	163562
#	175337
#	189755
#	201965
#	213752
#	225837
#	238850
#
# Disc length: 3355 seconds
#
# Revision: 6
# Processed by: cddbd v1.5.2PL0 Copyright (c) Steve Scherf et al.
# Submitted via: audiograbber 1.83.01
#
DISCID=180d1914
DTITLE=Roy Acuff - Essential Roy Acuff:  1936-1949
DYEAR=1992
DGENRE=Country
TTITLE0=Great Speckle Bird  1936
TTITLE1=Steel Guitar Blues  1937
TTITLE2=Just To Ease My Worried Mind  1940
TTITLE3=Lonesome Old River Blues  1940
TTITLE4=The Precious Jewel  1940
TTITLE5=It Won't Be Long (Till I'll Be Leaving)  1941
TTITLE6=Wreck On The Highway  1942
TTITLE7=Fireball Mail  1942
TTITLE8=Night Train To Memphis  1942
TTITLE9=The Prodigal Son  1942
TTITLE10=Not A Word From Home  1942
TTITLE11=I'll Forgive You, But I Can't Forget You  1942
TTITLE12=Freight Train Blues  1947
TTITLE13=Wabash Cannon Ball  1947
TTITLE14=Jole Blon  1947
TTITLE15=This World Can't Stand Long  1947
TTITLE16=Waltz Of The Wind  1947
TTITLE17=A Sinner's Death (I'm Dying)  1947
TTITLE18=Tennessee Waltz  1949
TTITLE19=Black Mountain Rag  1949
EXTD=Columbia YEAR: 1992
EXTT0=
EXTT1=
EXTT2=
EXTT3=
EXTT4=
EXTT5=
EXTT6=
EXTT7=
EXTT8=
EXTT9=
EXTT10=
EXTT11=
EXTT12=
EXTT13=
EXTT14=
EXTT15=
EXTT16=
EXTT17=
EXTT18=
EXTT19=
PLAYORDER=
